<svg fill="none" height="188" viewBox="0 0 168 188" width="168" xmlns="http://www.w3.org/2000/svg" xmlns:xlink="http://www.w3.org/1999/xlink"><filter id="a" color-interpolation-filters="sRGB" filterUnits="userSpaceOnUse" height="37.5" width="37.5" x="99.25" y="120.25"><feFlood flood-opacity="0" result="BackgroundImageFix"/><feBlend in="SourceGraphic" in2="BackgroundImageFix" mode="normal" result="shape"/><feGaussianBlur result="effect1_foregroundBlur_109_257" stdDeviation="1.875"/></filter><filter id="b" color-interpolation-filters="sRGB" filterUnits="userSpaceOnUse" height="21.3158" width="21.3158" x="119.842" y="28.8421"><feFlood flood-opacity="0" result="BackgroundImageFix"/><feBlend in="SourceGraphic" in2="BackgroundImageFix" mode="normal" result="shape"/><feGaussianBlur result="effect1_foregroundBlur_109_257" stdDeviation="1.57895"/></filter><filter id="c" color-interpolation-filters="sRGB" filterUnits="userSpaceOnUse" height="29.8421" width="29.8421" x="21.5789" y="39.5789"><feFlood flood-opacity="0" result="BackgroundImageFix"/><feBlend in="SourceGraphic" in2="BackgroundImageFix" mode="normal" result="shape"/><feGaussianBlur result="effect1_foregroundBlur_109_257" stdDeviation="2.21053"/></filter><pattern id="d" height="1" patternContentUnits="objectBoundingBox" width="1"/><path d="m17.5 7c3.5899 0 6.5-2.91015 6.5-6.5 0-.168236-.0064-.334979-.0189-.5h9.0378c-.0125.165021-.0189.331764-.0189.5 0 3.58985 2.9101 6.5 6.5 6.5s6.5-2.91015 6.5-6.5c0-.168236-.0064-.334979-.0189-.5h9.0378c-.0125.165021-.0189.331764-.0189.5 0 3.58985 2.9101 6.5 6.5 6.5s6.5-2.91015 6.5-6.5c0-.168236-.0064-.334979-.0189-.5h9.0378c-.0125.165021-.0189.331764-.0189.5 0 3.58985 2.9101 6.5 6.5 6.5s6.5-2.91015 6.5-6.5c0-.168236-.0064-.334979-.0189-.5h9.0378c-.0125.165021-.0189.331764-.0189.5 0 3.58985 2.91 6.5 6.5 6.5s6.5-2.91015 6.5-6.5c0-.168236-.006-.334979-.019-.5h9.038c-.013.165021-.019.331764-.019.5 0 3.58985 2.91 6.5 6.5 6.5s6.5-2.91015 6.5-6.5c0-.168236-.006-.334979-.019-.5h9.038c-.013.165021-.019.331764-.019.5 0 3.58985 2.91 6.5 6.5 6.5s6.5-2.91015 6.5-6.5c0-.168236-.006-.334979-.019-.5h12.019v12.0189c-.165-.0125-.332-.0189-.5-.0189-3.59 0-6.5 2.9101-6.5 6.5s2.91 6.5 6.5 6.5c.168 0 .335-.0064.5-.0189v9.0378c-.165-.0125-.332-.0189-.5-.0189-3.59 0-6.5 2.9101-6.5 6.5s2.91 6.5 6.5 6.5c.168 0 .335-.0064.5-.0189v9.0378c-.165-.0125-.332-.0189-.5-.0189-3.59 0-6.5 2.9101-6.5 6.5s2.91 6.5 6.5 6.5c.168 0 .335-.0064.5-.0189v9.0378c-.165-.0125-.332-.0189-.5-.0189-3.59 0-6.5 2.9101-6.5 6.5s2.91 6.5 6.5 6.5c.168 0 .335-.0064.5-.0189v9.0379c-.165-.013-.332-.019-.5-.019-3.59 0-6.5 2.91-6.5 6.5s2.91 6.5 6.5 6.5c.168 0 .335-.006.5-.019v9.038c-.165-.013-.332-.019-.5-.019-3.59 0-6.5 2.91-6.5 6.5s2.91 6.5 6.5 6.5c.168 0 .335-.006.5-.019v9.038c-.165-.013-.332-.019-.5-.019-3.59 0-6.5 2.91-6.5 6.5s2.91 6.5 6.5 6.5c.168 0 .335-.006.5-.019v9.038c-.165-.013-.332-.019-.5-.019-3.59 0-6.5 2.91-6.5 6.5s2.91 6.5 6.5 6.5c.168 0 .335-.006.5-.019v9.019h-12.019c-.255-3.356-3.059-6-6.481-6s-6.226 2.644-6.481 6h-9.038c-.255-3.356-3.059-6-6.481-6s-6.226 2.644-6.481 6h-9.038c-.255-3.356-3.059-6-6.481-6s-6.2257 2.644-6.4811 6h-9.0378c-.2554-3.356-3.0595-6-6.4811-6s-6.2257 2.644-6.4811 6h-9.0378c-.2554-3.356-3.0595-6-6.4811-6s-6.2257 2.644-6.4811 6h-9.0378c-.2554-3.356-3.0595-6-6.4811-6s-6.2257 2.644-6.4811 6h-9.0378c-.2554-3.356-3.0595-6-6.4811-6s-6.2257 2.644-6.4811 6h-11.0189v-9.019c.165021.013.331764.019.5.019 3.58985 0 6.5-2.91 6.5-6.5s-2.91015-6.5-6.5-6.5c-.168236 0-.334979.006-.5.019v-9.038c.165021.013.331764.019.5.019 3.58985 0 6.5-2.91 6.5-6.5s-2.91015-6.5-6.5-6.5c-.168236 0-.334979.006-.5.019v-9.038c.165021.013.331764.019.5.019 3.58985 0 6.5-2.91 6.5-6.5s-2.91015-6.5-6.5-6.5c-.168236 0-.334979.006-.5.019v-9.038c.165021.013.331764.019.5.019 3.58985 0 6.5-2.91 6.5-6.5s-2.91015-6.5-6.5-6.5c-.168236 0-.334979.006-.5.019v-9.0379c.165021.0125.331764.0189.5.0189 3.58985 0 6.5-2.9101 6.5-6.5s-2.91015-6.5-6.5-6.5c-.168236 0-.334979.0064-.5.0189v-9.0378c.165021.0125.331764.0189.5.0189 3.58985 0 6.5-2.9101 6.5-6.5s-2.91015-6.5-6.5-6.5c-.168236 0-.334979.0064-.5.0189v-9.0378c.165021.0125.331764.0189.5.0189 3.58985 0 6.5-2.9101 6.5-6.5s-2.91015-6.5-6.5-6.5c-.168236 0-.334979.0064-.5.0189v-9.0378c.165021.0125.331764.0189.5.0189 3.58985 0 6.5-2.9101 6.5-6.5s-2.91015-6.5-6.5-6.5c-.168236 0-.334979.0064-.5.0189v-12.0189h11.0189c-.0125.165021-.0189.331764-.0189.5 0 3.58985 2.9101 6.5 6.5 6.5z" fill="#fff"/><rect fill="#19222f" height="156" rx="4" width="140" x="14" y="16"/><path d="m52.4554 37.8353c-7.9099 1.0831-14.8045 38.3376-14.8045 38.3376l36.0501-4.3086s-13.7752-35.0519-21.2456-34.029z" fill="#ffcfbb"/><path d="m53.3563 43.8276c-6.0898.8339-11.3979 29.5161-11.3979 29.5161l27.7549-3.3172s-10.6055-26.9865-16.357-26.1989z" fill="#ffded0"/><path d="m114.63 37.8353c7.91 1.0831 14.804 38.3376 14.804 38.3376l-36.0496-4.3086s13.7756-35.0519 21.2456-34.029z" fill="#ffcfbb"/><path d="m113.729 43.8276c6.09.8339 11.398 29.5161 11.398 29.5161l-27.7549-3.3172s10.6059-26.9865 16.3569-26.1989z" fill="#ffded0"/><rect fill="#ffd1bd" height="103" rx="45.6567" width="100" x="33" y="51"/><g clip-rule="evenodd" fill-rule="evenodd"><path d="m78.2439 129.878c0 .635-.1251 1.264-.3682 1.851s-.5995 1.12-1.0487 1.57c-.4491.449-.9824.805-1.5693 1.048s-1.216.368-1.8512.368c-.6353 0-1.2643-.125-1.8512-.368s-1.1202-.599-1.5694-1.048c-.4492-.45-.8055-.983-1.0486-1.57s-.3682-1.216-.3682-1.851h4.8374zm9.6748 0h-4.8374-4.8374c0 .635.1251 1.264.3682 1.851s.5994 1.12 1.0486 1.57c.4492.449.9825.805 1.5694 1.048s1.2159.368 1.8512.368c.6352 0 1.2643-.125 1.8512-.368s1.1201-.599 1.5693-1.048c.4492-.45.8056-.983 1.0487-1.57s.3682-1.216.3682-1.851zm0 0h4.8374 4.8374c0 .635-.1251 1.264-.3682 1.851s-.5995 1.12-1.0487 1.57c-.4492.449-.9824.805-1.5693 1.048s-1.216.368-1.8512.368c-.6353 0-1.2643-.125-1.8512-.368s-1.1202-.599-1.5694-1.048c-.4492-.45-.8055-.983-1.0486-1.57s-.3682-1.216-.3682-1.851z" fill="#f4b89f" fill-opacity=".5"/><path d="m78.2439 119.236c0 .614-.1251 1.222-.3682 1.789-.2431.568-.5995 1.083-1.0487 1.517-.4491.435-.9824.779-1.5693 1.014s-1.216.356-1.8512.356c-.6353 0-1.2643-.121-1.8512-.356s-1.1202-.579-1.5694-1.014c-.4492-.434-.8055-.949-1.0486-1.517-.2431-.567-.3682-1.175-.3682-1.789h4.8374zm9.6748 0h-4.8374-4.8374c0 .614.1251 1.222.3682 1.789.2431.568.5994 1.083 1.0486 1.517.4492.435.9825.779 1.5694 1.014s1.2159.356 1.8512.356c.6352 0 1.2643-.121 1.8512-.356s1.1201-.579 1.5693-1.014c.4492-.434.8056-.949 1.0487-1.517.2431-.567.3682-1.175.3682-1.789zm0 0h4.8374 4.8374c0 .614-.1251 1.222-.3682 1.789-.2431.568-.5995 1.083-1.0487 1.517-.4492.435-.9824.779-1.5693 1.014s-1.216.356-1.8512.356c-.6353 0-1.2643-.121-1.8512-.356s-1.1202-.579-1.5694-1.014c-.4492-.434-.8055-.949-1.0486-1.517-.2431-.567-.3682-1.175-.3682-1.789z" fill="#f4b89f" fill-opacity=".5"/><path d="m71.6328 140.52h5.9661 5.9661 5.9662c0 1.583-.6286 3.1-1.7475 4.219-1.1188 1.119-2.6363 1.747-4.2187 1.747-1.5823 0-3.0998-.628-4.2186-1.747-1.1164-1.116-1.7447-2.63-1.7475-4.208-.0014.78-.1556 1.552-.4541 2.272-.2998.724-.7393 1.382-1.2933 1.936s-1.2117.993-1.9356 1.293c-.7238.3-1.4996.454-2.2831.454s-1.5593-.154-2.2831-.454c-.7239-.3-1.3816-.739-1.9356-1.293s-.9934-1.212-1.2933-1.936c-.2998-.723-.4541-1.499-.4541-2.283zm29.3762 2.283c.3-.723.454-1.499.454-2.283h-5.9657-5.9661c0 .784.1543 1.56.4541 2.283.2999.724.7393 1.382 1.2933 1.936s1.2117.993 1.9356 1.293c.7238.3 1.4996.454 2.2831.454s1.5593-.154 2.2832-.454c.7238-.3 1.3815-.739 1.9355-1.293s.993-1.212 1.293-1.936z" fill="#f4b89f" fill-opacity=".5"/><path d="m38.1966 75.4821c-3.319 6.3289-5.1966 13.5325-5.1966 21.1745v11.6864c0 18.3 10.7661 34.085 26.3099 41.367 5.9871-6.743 9.6233-15.621 9.6233-25.348v-11.414c0-18.5418-13.2128-33.9977-30.7366-37.4659z" fill="#ffded0"/><path d="m127.817 75.5078c3.311 6.3227 5.183 13.5171 5.183 21.1489v11.6863c0 18.261-10.72 34.017-26.21 41.32-5.962-6.737-9.5815-15.596-9.5815-25.301v-11.414c0-18.4965 13.1485-33.9222 30.6085-37.4402z" fill="#ffded0"/></g><path d="m83.0708 90.5354c0 15.7596-12.7757 28.5356-28.5354 28.5356s-28.5354-12.776-28.5354-28.5356c0-15.7597 12.7757-28.5354 28.5354-28.5354s28.5354 12.7757 28.5354 28.5354z" fill="#fff"/><path d="m76.5041 90.252c0 12.289-9.9626 22.252-22.2521 22.252-12.2894 0-22.252-9.963-22.252-22.252 0-12.2894 9.9626-22.252 22.252-22.252 12.2895 0 22.2521 9.9626 22.2521 22.252z" fill="#f3f3f3"/><path d="m69.5923 90.7961c0 8.1717-6.6245 14.7959-14.7962 14.7959-8.1716 0-14.7961-6.6242-14.7961-14.7959 0-8.1716 6.6245-14.7961 14.7961-14.7961 8.1717 0 14.7962 6.6245 14.7962 14.7961z" fill="#323232"/><path d="m55.007 85.877c0 2.9185-2.3659 5.2844-5.2844 5.2844-2.9184 0-5.2843-2.3659-5.2843-5.2844 0-2.9184 2.3659-5.2843 5.2843-5.2843 2.9185 0 5.2844 2.3659 5.2844 5.2843z" fill="#f7f7f7"/><path d="m141.071 90.5354c0 15.7596-12.776 28.5356-28.536 28.5356-15.7593 0-28.535-12.776-28.535-28.5356 0-15.7597 12.7757-28.5354 28.535-28.5354 15.76 0 28.536 12.7757 28.536 28.5354z" fill="#fff"/><path d="m134.504 90.252c0 12.289-9.963 22.252-22.252 22.252-12.2894 0-22.252-9.963-22.252-22.252 0-12.2894 9.9626-22.252 22.252-22.252 12.289 0 22.252 9.9626 22.252 22.252z" fill="#f3f3f3"/><path d="m127.592 90.7961c0 8.1717-6.624 14.7959-14.796 14.7959s-14.796-6.6242-14.796-14.7959c0-8.1716 6.624-14.7961 14.796-14.7961s14.796 6.6245 14.796 14.7961z" fill="#323232"/><path d="m123.581 85.877c0 2.9185-2.366 5.2844-5.284 5.2844s-5.284-2.3659-5.284-5.2844c0-2.9184 2.366-5.2843 5.284-5.2843s5.284 2.3659 5.284 5.2843z" fill="#f7f7f7"/><path d="m92 93.5949c0-3.09-3.8056-5.5949-8.5-5.5949s-8.5 2.5049-8.5 5.5949 3.8056 11.4051 8.5 11.4051 8.5-8.3151 8.5-11.4051z" fill="#ffd500"/><ellipse cx="49.7032" cy="111.98" fill="#ffb99b" rx="7.2561" ry="4.35366"/><ellipse cx="117.427" cy="111.98" fill="#ffb99b" rx="7.2561" ry="4.35366"/><g filter="url(#a)"><path d="m118 124 4.051 10.949 10.949 4.051-10.949 4.051-4.051 10.949-4.051-10.949-10.949-4.051 10.949-4.051z" fill="#fff"/></g><path d="m118 124 4.051 10.949 10.949 4.051-10.949 4.051-4.051 10.949-4.051-10.949-10.949-4.051 10.949-4.051z" fill="#fff"/><g filter="url(#b)"><path d="m130.5 32 2.026 5.4743 5.474 2.0257-5.474 2.0257-2.026 5.4743-2.026-5.4743-5.474-2.0257 5.474-2.0257z" fill="#fff"/></g><path d="m130.5 32 2.026 5.4743 5.474 2.0257-5.474 2.0257-2.026 5.4743-2.026-5.4743-5.474-2.0257 5.474-2.0257z" fill="#fff"/><g filter="url(#c)"><path d="m36.5 44 2.836 7.664 7.664 2.836-7.664 2.836-2.836 7.664-2.836-7.664-7.664-2.836 7.664-2.836z" fill="#fff"/></g><path d="m36.5 44 2.836 7.664 7.664 2.836-7.664 2.836-2.836 7.664-2.836-7.664-7.664-2.836 7.664-2.836z" fill="#fff"/><path d="m14 16h140v156h-140z" fill="url(#d)"/></svg>